# xmcd
# Track frame offsets:
# 150
# 18485
# 34470
# 48355
# 65389
# 76647
# 93980
# 109515
# 127899
# 143883
# 160166
# 175624
# 191308
# 204141
# 217221
# 235154
# 251533
#
# Disc length: 3568 seconds
# Revision: 0
# Processed by: cddbd v1.5.1PL0 Copyright (c) Steve Scherf et al.
# Submitted via: VisiTrax 2.9.10.228 - For more info visit www.synapsa.com
#
DISCID=d80dee11
DTITLE=Toby Keith - Karaoke Classics  CKC001
DYEAR=1900
DGENRE=Karaoke
TTITLE0=Keith, Toby - I Love This Bar
TTITLE1=Keith, Toby - How Do You Like Me Now
TTITLE2=Keith, Toby - I Wanna Talk About Me
TTITLE3=Keith, Toby - You Shouldn't Kiss Me Like This
TTITLE4=Keith, Toby - You Ain't Much Fun
TTITLE5=Keith, Toby - Rock You Baby
TTITLE6=Keith, Toby and Willie Nelson - Beer For My Horses
TTITLE7=Keith, Toby - We Were In Love
TTITLE8=Keith, Toby - Wish I Didn't Know Now
TTITLE9=Keith, Toby - Should've Been A Cowboy
TTITLE10=Keith, Toby - My List
TTITLE11=Keith, Toby - Me Too
TTITLE12=Keith, Toby - Little Less Talk, A Lot More Action, A
TTITLE13=Keith, Toby - I'm Just Talking About Tonight
TTITLE14=Keith, Toby - I'm So Happy I Can't Stop Crying
TTITLE15=Keith, Toby - Courtesy Of The Red White and Blue
TTITLE16=Keith, Toby - Who's Your Daddy
EXTD=
EXTT0=
EXTT1=
EXTT2=
EXTT3=
EXTT4=
EXTT5=
EXTT6=
EXTT7=
EXTT8=
EXTT9=
EXTT10=
EXTT11=
EXTT12=
EXTT13=
EXTT14=
EXTT15=
EXTT16=
PLAYORDER=
